1200
12000.000000 0.000000 0.000000
11999.341797 125.661407 0.000000
10000.000000 0.000000 0.000000
9999.452148 104.717842 0.000000
11997.368164 251.309036 0.000000
9997.806641 209.424194 0.000000
11994.079102 376.929108 0.000000
9995.065430 314.107605 0.000000
11989.473633 502.507843 0.000000
9991.228516 418.756531 0.000000
11983.554688 628.031494 0.000000
9986.294922 523.359558 0.000000
11976.320312 753.486206 0.000000
9980.267578 627.905212 0.000000
11967.773438 878.858337 0.000000
9973.144531 732.381958 0.000000
11957.914062 1004.134094 0.000000
9964.928711 836.778442 0.000000
11946.743164 1129.299805 0.000000
9955.620117 941.083130 0.000000
11934.262695 1254.341553 0.000000
9945.218750 1045.284668 0.000000
11920.473633 1379.245850 0.000000
9933.727539 1149.371460 0.000000
11905.375977 1503.998779 0.000000
9921.147461 1253.332275 0.000000
11888.973633 1628.586914 0.000000
9907.478516 1357.155762 0.000000
11871.267578 1752.996338 0.000000
9892.723633 1460.830322 0.000000
11852.259766 1877.213623 0.000000
9876.883789 1564.344604 0.000000
11831.952148 2001.224976 0.000000
9859.959961 1667.687500 0.000000
11810.347656 2125.016846 0.000000
9841.956055 1770.847412 0.000000
11787.447266 2248.575684 0.000000
9822.872070 1873.813110 0.000000
11763.253906 2371.888184 0.000000
9802.711914 1976.573364 0.000000
11737.771484 2494.940186 0.000000
9781.475586 2079.116943 0.000000
11711.000977 2617.718994 0.000000
9759.167969 2181.432373 0.000000
11682.947266 2740.210449 0.000000
9735.789062 2283.508789 0.000000
11653.611328 2862.401611 0.000000
9711.342773 2385.334473 0.000000
11622.998047 2984.278564 0.000000
9685.832031 2486.898926 0.000000
11591.110352 3105.828613 0.000000
9659.257812 2588.190430 0.000000
11557.951172 3227.037842 0.000000
9631.625977 2689.198242 0.000000
11523.524414 3347.893311 0.000000
9602.936523 2789.911133 0.000000
11487.833984 3468.381592 0.000000
9573.195312 2890.317871 0.000000
11450.883789 3588.489502 0.000000
9542.403320 2990.407959 0.000000
11412.677734 3708.203857 0.000000
9510.565430 3090.169922 0.000000
11373.220703 3827.511719 0.000000
9477.684570 3189.593018 0.000000
11332.516602 3946.399658 0.000000
9443.763672 3288.666504 0.000000
11290.569336 4064.854980 0.000000
9408.807617 3387.379150 0.000000
11247.383789 4182.864746 0.000000
9372.820312 3485.720459 0.000000
11202.964844 4300.415527 0.000000
9335.804688 3583.679443 0.000000
11157.317383 4417.494629 0.000000
9297.764648 3681.245605 0.000000
11110.447266 4534.089355 0.000000
9258.706055 3778.407959 0.000000
11062.357422 4650.187012 0.000000
9218.631836 3875.155762 0.000000
11013.055664 4765.774902 0.000000
9177.545898 3971.479004 0.000000
10962.545898 4880.839844 0.000000
9135.454102 4067.366455 0.000000
10910.833008 4995.369629 0.000000
9092.361328 4162.808105 0.000000
10857.924805 5109.351562 0.000000
9048.270508 4257.792969 0.000000
10803.825195 5222.772949 0.000000
9003.187500 4352.311035 0.000000
10748.541016 5335.622070 0.000000
8957.117188 4446.351562 0.000000
10692.078125 5447.886230 0.000000
8910.065430 4539.904785 0.000000
10634.443359 5559.552246 0.000000
8862.036133 4632.960449 0.000000
10575.641602 5670.609375 0.000000
8813.034180 4725.507812 0.000000
10515.679688 5781.043945 0.000000
8763.066406 4817.536621 0.000000
10454.565430 5890.845215 0.000000
8712.137695 4909.037598 0.000000
10392.304688 6000.000000 0.000000
8660.253906 5000.000000 0.000000
10328.904297 6108.497070 0.000000
8607.419922 5090.414062 0.000000
10264.371094 6216.324219 0.000000
8553.642578 5180.270020 0.000000
10198.711914 6323.469727 0.000000
8498.926758 5269.558105 0.000000
10131.935547 6429.921387 0.000000
8443.279297 5358.268066 0.000000
10064.046875 6535.668457 0.000000
8386.706055 5446.390137 0.000000
9995.054688 6640.698730 0.000000
8329.212891 5533.915527 0.000000
9924.966797 6745.000488 0.000000
8270.805664 5620.833984 0.000000
9853.790039 6848.562988 0.000000
8211.492188 5707.135742 0.000000
9781.533203 6951.374023 0.000000
8151.277832 5792.811523 0.000000
9708.204102 7053.422852 0.000000
8090.169922 5877.852539 0.000000
9633.809570 7154.698730 0.000000
8028.174805 5962.248535 0.000000
9558.359375 7255.189453 0.000000
7965.299316 6045.991211 0.000000
9481.860352 7354.884766 0.000000
7901.550293 6129.070312 0.000000
9404.321289 7453.773438 0.000000
7836.934570 6211.478027 0.000000
9325.751953 7551.844727 0.000000
7771.459473 6293.204102 0.000000
9246.159180 7649.087891 0.000000
7705.132324 6374.239746 0.000000
9165.552734 7745.492188 0.000000
7637.960449 6454.576660 0.000000
9083.940430 7841.047363 0.000000
7569.950684 6534.206055 0.000000
9001.333008 7935.742188 0.000000
7501.110840 6613.118652 0.000000
8917.738281 8029.567383 0.000000
7431.448242 6691.306152 0.000000
8833.165039 8122.511719 0.000000
7360.970703 6768.759766 0.000000
8747.623047 8214.565430 0.000000
7289.686035 6845.471191 0.000000
8661.123047 8305.717773 0.000000
7217.602051 6921.431641 0.000000
8573.671875 8395.959961 0.000000
7144.726562 6996.633301 0.000000
8485.281250 8485.281250 0.000000
7071.067871 7071.067871 0.000000
8395.959961 8573.671875 0.000000
6996.633301 7144.726562 0.000000
8305.717773 8661.123047 0.000000
6921.431641 7217.602051 0.000000
8214.565430 8747.623047 0.000000
6845.471191 7289.686035 0.000000
8122.511719 8833.165039 0.000000
6768.759766 7360.970703 0.000000
8029.567383 8917.738281 0.000000
6691.306152 7431.448242 0.000000
7935.742188 9001.333008 0.000000
6613.118652 7501.110840 0.000000
7841.047363 9083.940430 0.000000
6534.206055 7569.950684 0.000000
7745.492188 9165.552734 0.000000
6454.576660 7637.960449 0.000000
7649.087891 9246.159180 0.000000
6374.239746 7705.132324 0.000000
7551.844727 9325.751953 0.000000
6293.204102 7771.459473 0.000000
7453.773438 9404.321289 0.000000
6211.478027 7836.934570 0.000000
7354.884766 9481.860352 0.000000
6129.070312 7901.550293 0.000000
7255.189453 9558.359375 0.000000
6045.991211 7965.299316 0.000000
7154.698730 9633.809570 0.000000
5962.248535 8028.174805 0.000000
7053.422852 9708.204102 0.000000
5877.852539 8090.169922 0.000000
6951.374023 9781.533203 0.000000
5792.811523 8151.277832 0.000000
6848.562988 9853.790039 0.000000
5707.135742 8211.492188 0.000000
6745.000488 9924.966797 0.000000
5620.833984 8270.805664 0.000000
6640.698730 9995.054688 0.000000
5533.915527 8329.212891 0.000000
6535.668457 10064.046875 0.000000
5446.390137 8386.706055 0.000000
6429.921387 10131.935547 0.000000
5358.268066 8443.279297 0.000000
6323.469727 10198.711914 0.000000
5269.558105 8498.926758 0.000000
6216.324219 10264.371094 0.000000
5180.270020 8553.642578 0.000000
6108.497070 10328.904297 0.000000
5090.414062 8607.419922 0.000000
6000.000000 10392.304688 0.000000
5000.000000 8660.253906 0.000000
5890.845215 10454.565430 0.000000
4909.037598 8712.137695 0.000000
5781.043945 10515.679688 0.000000
4817.536621 8763.066406 0.000000
5670.609375 10575.641602 0.000000
4725.507812 8813.034180 0.000000
5559.552246 10634.443359 0.000000
4632.960449 8862.036133 0.000000
5447.886230 10692.078125 0.000000
4539.904785 8910.065430 0.000000
5335.622070 10748.541016 0.000000
4446.351562 8957.117188 0.000000
5222.772949 10803.825195 0.000000
4352.311035 9003.187500 0.000000
5109.351562 10857.924805 0.000000
4257.792969 9048.270508 0.000000
4995.369629 10910.833008 0.000000
4162.808105 9092.361328 0.000000
4880.839844 10962.545898 0.000000
4067.366455 9135.454102 0.000000
4765.774902 11013.055664 0.000000
3971.479004 9177.545898 0.000000
4650.187012 11062.357422 0.000000
3875.155762 9218.631836 0.000000
4534.089355 11110.447266 0.000000
3778.407959 9258.706055 0.000000
4417.494629 11157.317383 0.000000
3681.245605 9297.764648 0.000000
4300.415527 11202.964844 0.000000
3583.679443 9335.804688 0.000000
4182.864746 11247.383789 0.000000
3485.720459 9372.820312 0.000000
4064.854980 11290.569336 0.000000
3387.379150 9408.807617 0.000000
3946.399658 11332.516602 0.000000
3288.666504 9443.763672 0.000000
3827.511719 11373.220703 0.000000
3189.593018 9477.684570 0.000000
3708.203857 11412.677734 0.000000
3090.169922 9510.565430 0.000000
3588.489502 11450.883789 0.000000
2990.407959 9542.403320 0.000000
3468.381592 11487.833984 0.000000
2890.317871 9573.195312 0.000000
3347.893311 11523.524414 0.000000
2789.911133 9602.936523 0.000000
3227.037842 11557.951172 0.000000
2689.198242 9631.625977 0.000000
3105.828613 11591.110352 0.000000
2588.190430 9659.257812 0.000000
2984.278564 11622.998047 0.000000
2486.898926 9685.832031 0.000000
2862.401611 11653.611328 0.000000
2385.334473 9711.342773 0.000000
2740.210449 11682.947266 0.000000
2283.508789 9735.789062 0.000000
2617.718994 11711.000977 0.000000
2181.432373 9759.167969 0.000000
2494.940186 11737.771484 0.000000
2079.116943 9781.475586 0.000000
2371.888184 11763.253906 0.000000
1976.573364 9802.711914 0.000000
2248.575684 11787.447266 0.000000
1873.813110 9822.872070 0.000000
2125.016846 11810.347656 0.000000
1770.847412 9841.956055 0.000000
2001.224976 11831.952148 0.000000
1667.687500 9859.959961 0.000000
1877.213623 11852.259766 0.000000
1564.344604 9876.883789 0.000000
1752.996338 11871.267578 0.000000
1460.830322 9892.723633 0.000000
1628.586914 11888.973633 0.000000
1357.155762 9907.478516 0.000000
1503.998779 11905.375977 0.000000
1253.332275 9921.147461 0.000000
1379.245850 11920.473633 0.000000
1149.371460 9933.727539 0.000000
1254.341553 11934.262695 0.000000
1045.284668 9945.218750 0.000000
1129.299805 11946.743164 0.000000
941.083130 9955.620117 0.000000
1004.134094 11957.914062 0.000000
836.778442 9964.928711 0.000000
878.858337 11967.773438 0.000000
732.381958 9973.144531 0.000000
753.486206 11976.320312 0.000000
627.905212 9980.267578 0.000000
628.031494 11983.554688 0.000000
523.359558 9986.294922 0.000000
502.507843 11989.473633 0.000000
418.756531 9991.228516 0.000000
376.929108 11994.079102 0.000000
314.107605 9995.065430 0.000000
251.309036 11997.368164 0.000000
209.424194 9997.806641 0.000000
125.661407 11999.341797 0.000000
104.717842 9999.452148 0.000000
0.000000 12000.000000 0.000000
0.000000 10000.000000 0.000000
-125.661407 11999.341797 0.000000
-104.717842 9999.452148 0.000000
-251.309036 11997.368164 0.000000
-209.424194 9997.806641 0.000000
-376.929108 11994.079102 0.000000
-314.107605 9995.065430 0.000000
-502.507843 11989.473633 0.000000
-418.756531 9991.228516 0.000000
-628.031494 11983.554688 0.000000
-523.359558 9986.294922 0.000000
-753.486206 11976.320312 0.000000
-627.905212 9980.267578 0.000000
-878.858337 11967.773438 0.000000
-732.381958 9973.144531 0.000000
-1004.134094 11957.914062 0.000000
-836.778442 9964.928711 0.000000
-1129.299805 11946.743164 0.000000
-941.083130 9955.620117 0.000000
-1254.341553 11934.262695 0.000000
-1045.284668 9945.218750 0.000000
-1379.245850 11920.473633 0.000000
-1149.371460 9933.727539 0.000000
-1503.998779 11905.375977 0.000000
-1253.332275 9921.147461 0.000000
-1628.586914 11888.973633 0.000000
-1357.155762 9907.478516 0.000000
-1752.996338 11871.267578 0.000000
-1460.830322 9892.723633 0.000000
-1877.213623 11852.259766 0.000000
-1564.344604 9876.883789 0.000000
-2001.224976 11831.952148 0.000000
-1667.687500 9859.959961 0.000000
-2125.016846 11810.347656 0.000000
-1770.847412 9841.956055 0.000000
-2248.575684 11787.447266 0.000000
-1873.813110 9822.872070 0.000000
-2371.888184 11763.253906 0.000000
-1976.573364 9802.711914 0.000000
-2494.940186 11737.771484 0.000000
-2079.116943 9781.475586 0.000000
-2617.718994 11711.000977 0.000000
-2181.432373 9759.167969 0.000000
-2740.210449 11682.947266 0.000000
-2283.508789 9735.789062 0.000000
-2862.401611 11653.611328 0.000000
-2385.334473 9711.342773 0.000000
-2984.278564 11622.998047 0.000000
-2486.898926 9685.832031 0.000000
-3105.828613 11591.110352 0.000000
-2588.190430 9659.257812 0.000000
-3227.037842 11557.951172 0.000000
-2689.198242 9631.625977 0.000000
-3347.893311 11523.524414 0.000000
-2789.911133 9602.936523 0.000000
-3468.381592 11487.833984 0.000000
-2890.317871 9573.195312 0.000000
-3588.489502 11450.883789 0.000000
-2990.407959 9542.403320 0.000000
-3708.203857 11412.677734 0.000000
-3090.169922 9510.565430 0.000000
-3827.511719 11373.220703 0.000000
-3189.593018 9477.684570 0.000000
-3946.399658 11332.516602 0.000000
-3288.666504 9443.763672 0.000000
-4064.854980 11290.569336 0.000000
-3387.379150 9408.807617 0.000000
-4182.864746 11247.383789 0.000000
-3485.720459 9372.820312 0.000000
-4300.415527 11202.964844 0.000000
-3583.679443 9335.804688 0.000000
-4417.494629 11157.317383 0.000000
-3681.245605 9297.764648 0.000000
-4534.089355 11110.447266 0.000000
-3778.407959 9258.706055 0.000000
-4650.187012 11062.357422 0.000000
-3875.155762 9218.631836 0.000000
-4765.774902 11013.055664 0.000000
-3971.479004 9177.545898 0.000000
-4880.839844 10962.545898 0.000000
-4067.366455 9135.454102 0.000000
-4995.369629 10910.833008 0.000000
-4162.808105 9092.361328 0.000000
-5109.351562 10857.924805 0.000000
-4257.792969 9048.270508 0.000000
-5222.772949 10803.825195 0.000000
-4352.311035 9003.187500 0.000000
-5335.622070 10748.541016 0.000000
-4446.351562 8957.117188 0.000000
-5447.886230 10692.078125 0.000000
-4539.904785 8910.065430 0.000000
-5559.552246 10634.443359 0.000000
-4632.960449 8862.036133 0.000000
-5670.609375 10575.641602 0.000000
-4725.507812 8813.034180 0.000000
-5781.043945 10515.679688 0.000000
-4817.536621 8763.066406 0.000000
-5890.845215 10454.565430 0.000000
-4909.037598 8712.137695 0.000000
-6000.000000 10392.304688 0.000000
-5000.000000 8660.253906 0.000000
-6108.497070 10328.904297 0.000000
-5090.414062 8607.419922 0.000000
-6216.324219 10264.371094 0.000000
-5180.270020 8553.642578 0.000000
-6323.469727 10198.711914 0.000000
-5269.558105 8498.926758 0.000000
-6429.921387 10131.935547 0.000000
-5358.268066 8443.279297 0.000000
-6535.668457 10064.046875 0.000000
-5446.390137 8386.706055 0.000000
-6640.698730 9995.054688 0.000000
-5533.915527 8329.212891 0.000000
-6745.000488 9924.966797 0.000000
-5620.833984 8270.805664 0.000000
-6848.562988 9853.790039 0.000000
-5707.135742 8211.492188 0.000000
-6951.374023 9781.533203 0.000000
-5792.811523 8151.277832 0.000000
-7053.422852 9708.204102 0.000000
-5877.852539 8090.169922 0.000000
-7154.698730 9633.809570 0.000000
-5962.248535 8028.174805 0.000000
-7255.189453 9558.359375 0.000000
-6045.991211 7965.299316 0.000000
-7354.884766 9481.860352 0.000000
-6129.070312 7901.550293 0.000000
-7453.773438 9404.321289 0.000000
-6211.478027 7836.934570 0.000000
-7551.844727 9325.751953 0.000000
-6293.204102 7771.459473 0.000000
-7649.087891 9246.159180 0.000000
-6374.239746 7705.132324 0.000000
-7745.492188 9165.552734 0.000000
-6454.576660 7637.960449 0.000000
-7841.047363 9083.940430 0.000000
-6534.206055 7569.950684 0.000000
-7935.742188 9001.333008 0.000000
-6613.118652 7501.110840 0.000000
-8029.567383 8917.738281 0.000000
-6691.306152 7431.448242 0.000000
-8122.511719 8833.165039 0.000000
-6768.759766 7360.970703 0.000000
-8214.565430 8747.623047 0.000000
-6845.471191 7289.686035 0.000000
-8305.717773 8661.123047 0.000000
-6921.431641 7217.602051 0.000000
-8395.959961 8573.671875 0.000000
-6996.633301 7144.726562 0.000000
-8485.281250 8485.281250 0.000000
-7071.067871 7071.067871 0.000000
-8573.671875 8395.959961 0.000000
-7144.726562 6996.633301 0.000000
-8661.123047 8305.717773 0.000000
-7217.602051 6921.431641 0.000000
-8747.623047 8214.565430 0.000000
-7289.686035 6845.471191 0.000000
-8833.165039 8122.511719 0.000000
-7360.970703 6768.759766 0.000000
-8917.738281 8029.567383 0.000000
-7431.448242 6691.306152 0.000000
-9001.333008 7935.742188 0.000000
-7501.110840 6613.118652 0.000000
-9083.940430 7841.047363 0.000000
-7569.950684 6534.206055 0.000000
-9165.552734 7745.492188 0.000000
-7637.960449 6454.576660 0.000000
-9246.159180 7649.087891 0.000000
-7705.132324 6374.239746 0.000000
-9325.751953 7551.844727 0.000000
-7771.459473 6293.204102 0.000000
-9404.321289 7453.773438 0.000000
-7836.934570 6211.478027 0.000000
-9481.860352 7354.884766 0.000000
-7901.550293 6129.070312 0.000000
-9558.359375 7255.189453 0.000000
-7965.299316 6045.991211 0.000000
-9633.809570 7154.698730 0.000000
-8028.174805 5962.248535 0.000000
-9708.204102 7053.422852 0.000000
-8090.169922 5877.852539 0.000000
-9781.533203 6951.374023 0.000000
-8151.277832 5792.811523 0.000000
-9853.790039 6848.562988 0.000000
-8211.492188 5707.135742 0.000000
-9924.966797 6745.000488 0.000000
-8270.805664 5620.833984 0.000000
-9995.054688 6640.698730 0.000000
-8329.212891 5533.915527 0.000000
-10064.046875 6535.668457 0.000000
-8386.706055 5446.390137 0.000000
-10131.935547 6429.921387 0.000000
-8443.279297 5358.268066 0.000000
-10198.711914 6323.469727 0.000000
-8498.926758 5269.558105 0.000000
-10264.371094 6216.324219 0.000000
-8553.642578 5180.270020 0.000000
-10328.904297 6108.497070 0.000000
-8607.419922 5090.414062 0.000000
-10392.304688 6000.000000 0.000000
-8660.253906 5000.000000 0.000000
-10454.565430 5890.845215 0.000000
-8712.137695 4909.037598 0.000000
-10515.679688 5781.043945 0.000000
-8763.066406 4817.536621 0.000000
-10575.641602 5670.609375 0.000000
-8813.034180 4725.507812 0.000000
-10634.443359 5559.552246 0.000000
-8862.036133 4632.960449 0.000000
-10692.078125 5447.886230 0.000000
-8910.065430 4539.904785 0.000000
-10748.541016 5335.622070 0.000000
-8957.117188 4446.351562 0.000000
-10803.825195 5222.772949 0.000000
-9003.187500 4352.311035 0.000000
-10857.924805 5109.351562 0.000000
-9048.270508 4257.792969 0.000000
-10910.833008 4995.369629 0.000000
-9092.361328 4162.808105 0.000000
-10962.545898 4880.839844 0.000000
-9135.454102 4067.366455 0.000000
-11013.055664 4765.774902 0.000000
-9177.545898 3971.479004 0.000000
-11062.357422 4650.187012 0.000000
-9218.631836 3875.155762 0.000000
-11110.447266 4534.089355 0.000000
-9258.706055 3778.407959 0.000000
-11157.317383 4417.494629 0.000000
-9297.764648 3681.245605 0.000000
-11202.964844 4300.415527 0.000000
-9335.804688 3583.679443 0.000000
-11247.383789 4182.864746 0.000000
-9372.820312 3485.720459 0.000000
-11290.569336 4064.854980 0.000000
-9408.807617 3387.379150 0.000000
-11332.516602 3946.399658 0.000000
-9443.763672 3288.666504 0.000000
-11373.220703 3827.511719 0.000000
-9477.684570 3189.593018 0.000000
-11412.677734 3708.203857 0.000000
-9510.565430 3090.169922 0.000000
-11450.883789 3588.489502 0.000000
-9542.403320 2990.407959 0.000000
-11487.833984 3468.381592 0.000000
-9573.195312 2890.317871 0.000000
-11523.524414 3347.893311 0.000000
-9602.936523 2789.911133 0.000000
-11557.951172 3227.037842 0.000000
-9631.625977 2689.198242 0.000000
-11591.110352 3105.828613 0.000000
-9659.257812 2588.190430 0.000000
-11622.998047 2984.278564 0.000000
-9685.832031 2486.898926 0.000000
-11653.611328 2862.401611 0.000000
-9711.342773 2385.334473 0.000000
-11682.947266 2740.210449 0.000000
-9735.789062 2283.508789 0.000000
-11711.000977 2617.718994 0.000000
-9759.167969 2181.432373 0.000000
-11737.771484 2494.940186 0.000000
-9781.475586 2079.116943 0.000000
-11763.253906 2371.888184 0.000000
-9802.711914 1976.573364 0.000000
-11787.447266 2248.575684 0.000000
-9822.872070 1873.813110 0.000000
-11810.347656 2125.016846 0.000000
-9841.956055 1770.847412 0.000000
-11831.952148 2001.224976 0.000000
-9859.959961 1667.687500 0.000000
-11852.259766 1877.213623 0.000000
-9876.883789 1564.344604 0.000000
-11871.267578 1752.996338 0.000000
-9892.723633 1460.830322 0.000000
-11888.973633 1628.586914 0.000000
-9907.478516 1357.155762 0.000000
-11905.375977 1503.998779 0.000000
-9921.147461 1253.332275 0.000000
-11920.473633 1379.245850 0.000000
-9933.727539 1149.371460 0.000000
-11934.262695 1254.341553 0.000000
-9945.218750 1045.284668 0.000000
-11946.743164 1129.299805 0.000000
-9955.620117 941.083130 0.000000
-11957.914062 1004.134094 0.000000
-9964.928711 836.778442 0.000000
-11967.773438 878.858337 0.000000
-9973.144531 732.381958 0.000000
-11976.320312 753.486206 0.000000
-9980.267578 627.905212 0.000000
-11983.554688 628.031494 0.000000
-9986.294922 523.359558 0.000000
-11989.473633 502.507843 0.000000
-9991.228516 418.756531 0.000000
-11994.079102 376.929108 0.000000
-9995.065430 314.107605 0.000000
-11997.368164 251.309036 0.000000
-9997.806641 209.424194 0.000000
-11999.341797 125.661407 0.000000
-9999.452148 104.717842 0.000000
-12000.000000 0.000000 0.000000
-10000.000000 0.000000 0.000000
-11999.341797 -125.661407 0.000000
-9999.452148 -104.717842 0.000000
-11997.368164 -251.309036 0.000000
-9997.806641 -209.424194 0.000000
-11994.079102 -376.929108 0.000000
-9995.065430 -314.107605 0.000000
-11989.473633 -502.507843 0.000000
-9991.228516 -418.756531 0.000000
-11983.554688 -628.031494 0.000000
-9986.294922 -523.359558 0.000000
-11976.320312 -753.486206 0.000000
-9980.267578 -627.905212 0.000000
-11967.773438 -878.858337 0.000000
-9973.144531 -732.381958 0.000000
-11957.914062 -1004.134094 0.000000
-9964.928711 -836.778442 0.000000
-11946.743164 -1129.299805 0.000000
-9955.620117 -941.083130 0.000000
-11934.262695 -1254.341553 0.000000
-9945.218750 -1045.284668 0.000000
-11920.473633 -1379.245850 0.000000
-9933.727539 -1149.371460 0.000000
-11905.375977 -1503.998779 0.000000
-9921.147461 -1253.332275 0.000000
-11888.973633 -1628.586914 0.000000
-9907.478516 -1357.155762 0.000000
-11871.267578 -1752.996338 0.000000
-9892.723633 -1460.830322 0.000000
-11852.259766 -1877.213623 0.000000
-9876.883789 -1564.344604 0.000000
-11831.952148 -2001.224976 0.000000
-9859.959961 -1667.687500 0.000000
-11810.347656 -2125.016846 0.000000
-9841.956055 -1770.847412 0.000000
-11787.447266 -2248.575684 0.000000
-9822.872070 -1873.813110 0.000000
-11763.253906 -2371.888184 0.000000
-9802.711914 -1976.573364 0.000000
-11737.771484 -2494.940186 0.000000
-9781.475586 -2079.116943 0.000000
-11711.000977 -2617.718994 0.000000
-9759.167969 -2181.432373 0.000000
-11682.947266 -2740.210449 0.000000
-9735.789062 -2283.508789 0.000000
-11653.611328 -2862.401611 0.000000
-9711.342773 -2385.334473 0.000000
-11622.998047 -2984.278564 0.000000
-9685.832031 -2486.898926 0.000000
-11591.110352 -3105.828613 0.000000
-9659.257812 -2588.190430 0.000000
-11557.951172 -3227.037842 0.000000
-9631.625977 -2689.198242 0.000000
-11523.524414 -3347.893311 0.000000
-9602.936523 -2789.911133 0.000000
-11487.833984 -3468.381592 0.000000
-9573.195312 -2890.317871 0.000000
-11450.883789 -3588.489502 0.000000
-9542.403320 -2990.407959 0.000000
-11412.677734 -3708.203857 0.000000
-9510.565430 -3090.169922 0.000000
-11373.220703 -3827.511719 0.000000
-9477.684570 -3189.593018 0.000000
-11332.516602 -3946.399658 0.000000
-9443.763672 -3288.666504 0.000000
-11290.569336 -4064.854980 0.000000
-9408.807617 -3387.379150 0.000000
-11247.383789 -4182.864746 0.000000
-9372.820312 -3485.720459 0.000000
-11202.964844 -4300.415527 0.000000
-9335.804688 -3583.679443 0.000000
-11157.317383 -4417.494629 0.000000
-9297.764648 -3681.245605 0.000000
-11110.447266 -4534.089355 0.000000
-9258.706055 -3778.407959 0.000000
-11062.357422 -4650.187012 0.000000
-9218.631836 -3875.155762 0.000000
-11013.055664 -4765.774902 0.000000
-9177.545898 -3971.479004 0.000000
-10962.545898 -4880.839844 0.000000
-9135.454102 -4067.366455 0.000000
-10910.833008 -4995.369629 0.000000
-9092.361328 -4162.808105 0.000000
-10857.924805 -5109.351562 0.000000
-9048.270508 -4257.792969 0.000000
-10803.825195 -5222.772949 0.000000
-9003.187500 -4352.311035 0.000000
-10748.541016 -5335.622070 0.000000
-8957.117188 -4446.351562 0.000000
-10692.078125 -5447.886230 0.000000
-8910.065430 -4539.904785 0.000000
-10634.443359 -5559.552246 0.000000
-8862.036133 -4632.960449 0.000000
-10575.641602 -5670.609375 0.000000
-8813.034180 -4725.507812 0.000000
-10515.679688 -5781.043945 0.000000
-8763.066406 -4817.536621 0.000000
-10454.565430 -5890.845215 0.000000
-8712.137695 -4909.037598 0.000000
-10392.304688 -6000.000000 0.000000
-8660.253906 -5000.000000 0.000000
-10328.904297 -6108.497070 0.000000
-8607.419922 -5090.414062 0.000000
-10264.371094 -6216.324219 0.000000
-8553.642578 -5180.270020 0.000000
-10198.711914 -6323.469727 0.000000
-8498.926758 -5269.558105 0.000000
-10131.935547 -6429.921387 0.000000
-8443.279297 -5358.268066 0.000000
-10064.046875 -6535.668457 0.000000
-8386.706055 -5446.390137 0.000000
-9995.054688 -6640.698730 0.000000
-8329.212891 -5533.915527 0.000000
-9924.966797 -6745.000488 0.000000
-8270.805664 -5620.833984 0.000000
-9853.790039 -6848.562988 0.000000
-8211.492188 -5707.135742 0.000000
-9781.533203 -6951.374023 0.000000
-8151.277832 -5792.811523 0.000000
-9708.204102 -7053.422852 0.000000
-8090.169922 -5877.852539 0.000000
-9633.809570 -7154.698730 0.000000
-8028.174805 -5962.248535 0.000000
-9558.359375 -7255.189453 0.000000
-7965.299316 -6045.991211 0.000000
-9481.860352 -7354.884766 0.000000
-7901.550293 -6129.070312 0.000000
-9404.321289 -7453.773438 0.000000
-7836.934570 -6211.478027 0.000000
-9325.751953 -7551.844727 0.000000
-7771.459473 -6293.204102 0.000000
-9246.159180 -7649.087891 0.000000
-7705.132324 -6374.239746 0.000000
-9165.552734 -7745.492188 0.000000
-7637.960449 -6454.576660 0.000000
-9083.940430 -7841.047363 0.000000
-7569.950684 -6534.206055 0.000000
-9001.333008 -7935.742188 0.000000
-7501.110840 -6613.118652 0.000000
-8917.738281 -8029.567383 0.000000
-7431.448242 -6691.306152 0.000000
-8833.165039 -8122.511719 0.000000
-7360.970703 -6768.759766 0.000000
-8747.623047 -8214.565430 0.000000
-7289.686035 -6845.471191 0.000000
-8661.123047 -8305.717773 0.000000
-7217.602051 -6921.431641 0.000000
-8573.671875 -8395.959961 0.000000
-7144.726562 -6996.633301 0.000000
-8485.281250 -8485.281250 0.000000
-7071.067871 -7071.067871 0.000000
-8395.959961 -8573.671875 0.000000
-6996.633301 -7144.726562 0.000000
-8305.717773 -8661.123047 0.000000
-6921.431641 -7217.602051 0.000000
-8214.565430 -8747.623047 0.000000
-6845.471191 -7289.686035 0.000000
-8122.511719 -8833.165039 0.000000
-6768.759766 -7360.970703 0.000000
-8029.567383 -8917.738281 0.000000
-6691.306152 -7431.448242 0.000000
-7935.742188 -9001.333008 0.000000
-6613.118652 -7501.110840 0.000000
-7841.047363 -9083.940430 0.000000
-6534.206055 -7569.950684 0.000000
-7745.492188 -9165.552734 0.000000
-6454.576660 -7637.960449 0.000000
-7649.087891 -9246.159180 0.000000
-6374.239746 -7705.132324 0.000000
-7551.844727 -9325.751953 0.000000
-6293.204102 -7771.459473 0.000000
-7453.773438 -9404.321289 0.000000
-6211.478027 -7836.934570 0.000000
-7354.884766 -9481.860352 0.000000
-6129.070312 -7901.550293 0.000000
-7255.189453 -9558.359375 0.000000
-6045.991211 -7965.299316 0.000000
-7154.698730 -9633.809570 0.000000
-5962.248535 -8028.174805 0.000000
-7053.422852 -9708.204102 0.000000
-5877.852539 -8090.169922 0.000000
-6951.374023 -9781.533203 0.000000
-5792.811523 -8151.277832 0.000000
-6848.562988 -9853.790039 0.000000
-5707.135742 -8211.492188 0.000000
-6745.000488 -9924.966797 0.000000
-5620.833984 -8270.805664 0.000000
-6640.698730 -9995.054688 0.000000
-5533.915527 -8329.212891 0.000000
-6535.668457 -10064.046875 0.000000
-5446.390137 -8386.706055 0.000000
-6429.921387 -10131.935547 0.000000
-5358.268066 -8443.279297 0.000000
-6323.469727 -10198.711914 0.000000
-5269.558105 -8498.926758 0.000000
-6216.324219 -10264.371094 0.000000
-5180.270020 -8553.642578 0.000000
-6108.497070 -10328.904297 0.000000
-5090.414062 -8607.419922 0.000000
-6000.000000 -10392.304688 0.000000
-5000.000000 -8660.253906 0.000000
-5890.845215 -10454.565430 0.000000
-4909.037598 -8712.137695 0.000000
-5781.043945 -10515.679688 0.000000
-4817.536621 -8763.066406 0.000000
-5670.609375 -10575.641602 0.000000
-4725.507812 -8813.034180 0.000000
-5559.552246 -10634.443359 0.000000
-4632.960449 -8862.036133 0.000000
-5447.886230 -10692.078125 0.000000
-4539.904785 -8910.065430 0.000000
-5335.622070 -10748.541016 0.000000
-4446.351562 -8957.117188 0.000000
-5222.772949 -10803.825195 0.000000
-4352.311035 -9003.187500 0.000000
-5109.351562 -10857.924805 0.000000
-4257.792969 -9048.270508 0.000000
-4995.369629 -10910.833008 0.000000
-4162.808105 -9092.361328 0.000000
-4880.839844 -10962.545898 0.000000
-4067.366455 -9135.454102 0.000000
-4765.774902 -11013.055664 0.000000
-3971.479004 -9177.545898 0.000000
-4650.187012 -11062.357422 0.000000
-3875.155762 -9218.631836 0.000000
-4534.089355 -11110.447266 0.000000
-3778.407959 -9258.706055 0.000000
-4417.494629 -11157.317383 0.000000
-3681.245605 -9297.764648 0.000000
-4300.415527 -11202.964844 0.000000
-3583.679443 -9335.804688 0.000000
-4182.864746 -11247.383789 0.000000
-3485.720459 -9372.820312 0.000000
-4064.854980 -11290.569336 0.000000
-3387.379150 -9408.807617 0.000000
-3946.399658 -11332.516602 0.000000
-3288.666504 -9443.763672 0.000000
-3827.511719 -11373.220703 0.000000
-3189.593018 -9477.684570 0.000000
-3708.203857 -11412.677734 0.000000
-3090.169922 -9510.565430 0.000000
-3588.489502 -11450.883789 0.000000
-2990.407959 -9542.403320 0.000000
-3468.381592 -11487.833984 0.000000
-2890.317871 -9573.195312 0.000000
-3347.893311 -11523.524414 0.000000
-2789.911133 -9602.936523 0.000000
-3227.037842 -11557.951172 0.000000
-2689.198242 -9631.625977 0.000000
-3105.828613 -11591.110352 0.000000
-2588.190430 -9659.257812 0.000000
-2984.278564 -11622.998047 0.000000
-2486.898926 -9685.832031 0.000000
-2862.401611 -11653.611328 0.000000
-2385.334473 -9711.342773 0.000000
-2740.210449 -11682.947266 0.000000
-2283.508789 -9735.789062 0.000000
-2617.718994 -11711.000977 0.000000
-2181.432373 -9759.167969 0.000000
-2494.940186 -11737.771484 0.000000
-2079.116943 -9781.475586 0.000000
-2371.888184 -11763.253906 0.000000
-1976.573364 -9802.711914 0.000000
-2248.575684 -11787.447266 0.000000
-1873.813110 -9822.872070 0.000000
-2125.016846 -11810.347656 0.000000
-1770.847412 -9841.956055 0.000000
-2001.224976 -11831.952148 0.000000
-1667.687500 -9859.959961 0.000000
-1877.213623 -11852.259766 0.000000
-1564.344604 -9876.883789 0.000000
-1752.996338 -11871.267578 0.000000
-1460.830322 -9892.723633 0.000000
-1628.586914 -11888.973633 0.000000
-1357.155762 -9907.478516 0.000000
-1503.998779 -11905.375977 0.000000
-1253.332275 -9921.147461 0.000000
-1379.245850 -11920.473633 0.000000
-1149.371460 -9933.727539 0.000000
-1254.341553 -11934.262695 0.000000
-1045.284668 -9945.218750 0.000000
-1129.299805 -11946.743164 0.000000
-941.083130 -9955.620117 0.000000
-1004.134094 -11957.914062 0.000000
-836.778442 -9964.928711 0.000000
-878.858337 -11967.773438 0.000000
-732.381958 -9973.144531 0.000000
-753.486206 -11976.320312 0.000000
-627.905212 -9980.267578 0.000000
-628.031494 -11983.554688 0.000000
-523.359558 -9986.294922 0.000000
-502.507843 -11989.473633 0.000000
-418.756531 -9991.228516 0.000000
-376.929108 -11994.079102 0.000000
-314.107605 -9995.065430 0.000000
-251.309036 -11997.368164 0.000000
-209.424194 -9997.806641 0.000000
-125.661407 -11999.341797 0.000000
-104.717842 -9999.452148 0.000000
-0.000000 -12000.000000 0.000000
-0.000000 -10000.000000 0.000000
125.661407 -11999.341797 0.000000
104.717842 -9999.452148 0.000000
251.309036 -11997.368164 0.000000
209.424194 -9997.806641 0.000000
376.929108 -11994.079102 0.000000
314.107605 -9995.065430 0.000000
502.507843 -11989.473633 0.000000
418.756531 -9991.228516 0.000000
628.031494 -11983.554688 0.000000
523.359558 -9986.294922 0.000000
753.486206 -11976.320312 0.000000
627.905212 -9980.267578 0.000000
878.858337 -11967.773438 0.000000
732.381958 -9973.144531 0.000000
1004.134094 -11957.914062 0.000000
836.778442 -9964.928711 0.000000
1129.299805 -11946.743164 0.000000
941.083130 -9955.620117 0.000000
1254.341553 -11934.262695 0.000000
1045.284668 -9945.218750 0.000000
1379.245850 -11920.473633 0.000000
1149.371460 -9933.727539 0.000000
1503.998779 -11905.375977 0.000000
1253.332275 -9921.147461 0.000000
1628.586914 -11888.973633 0.000000
1357.155762 -9907.478516 0.000000
1752.996338 -11871.267578 0.000000
1460.830322 -9892.723633 0.000000
1877.213623 -11852.259766 0.000000
1564.344604 -9876.883789 0.000000
2001.224976 -11831.952148 0.000000
1667.687500 -9859.959961 0.000000
2125.016846 -11810.347656 0.000000
1770.847412 -9841.956055 0.000000
2248.575684 -11787.447266 0.000000
1873.813110 -9822.872070 0.000000
2371.888184 -11763.253906 0.000000
1976.573364 -9802.711914 0.000000
2494.940186 -11737.771484 0.000000
2079.116943 -9781.475586 0.000000
2617.718994 -11711.000977 0.000000
2181.432373 -9759.167969 0.000000
2740.210449 -11682.947266 0.000000
2283.508789 -9735.789062 0.000000
2862.401611 -11653.611328 0.000000
2385.334473 -9711.342773 0.000000
2984.278564 -11622.998047 0.000000
2486.898926 -9685.832031 0.000000
3105.828613 -11591.110352 0.000000
2588.190430 -9659.257812 0.000000
3227.037842 -11557.951172 0.000000
2689.198242 -9631.625977 0.000000
3347.893311 -11523.524414 0.000000
2789.911133 -9602.936523 0.000000
3468.381592 -11487.833984 0.000000
2890.317871 -9573.195312 0.000000
3588.489502 -11450.883789 0.000000
2990.407959 -9542.403320 0.000000
3708.203857 -11412.677734 0.000000
3090.169922 -9510.565430 0.000000
3827.511719 -11373.220703 0.000000
3189.593018 -9477.684570 0.000000
3946.399658 -11332.516602 0.000000
3288.666504 -9443.763672 0.000000
4064.854980 -11290.569336 0.000000
3387.379150 -9408.807617 0.000000
4182.864746 -11247.383789 0.000000
3485.720459 -9372.820312 0.000000
4300.415527 -11202.964844 0.000000
3583.679443 -9335.804688 0.000000
4417.494629 -11157.317383 0.000000
3681.245605 -9297.764648 0.000000
4534.089355 -11110.447266 0.000000
3778.407959 -9258.706055 0.000000
4650.187012 -11062.357422 0.000000
3875.155762 -9218.631836 0.000000
4765.774902 -11013.055664 0.000000
3971.479004 -9177.545898 0.000000
4880.839844 -10962.545898 0.000000
4067.366455 -9135.454102 0.000000
4995.369629 -10910.833008 0.000000
4162.808105 -9092.361328 0.000000
5109.351562 -10857.924805 0.000000
4257.792969 -9048.270508 0.000000
5222.772949 -10803.825195 0.000000
4352.311035 -9003.187500 0.000000
5335.622070 -10748.541016 0.000000
4446.351562 -8957.117188 0.000000
5447.886230 -10692.078125 0.000000
4539.904785 -8910.065430 0.000000
5559.552246 -10634.443359 0.000000
4632.960449 -8862.036133 0.000000
5670.609375 -10575.641602 0.000000
4725.507812 -8813.034180 0.000000
5781.043945 -10515.679688 0.000000
4817.536621 -8763.066406 0.000000
5890.845215 -10454.565430 0.000000
4909.037598 -8712.137695 0.000000
6000.000000 -10392.304688 0.000000
5000.000000 -8660.253906 0.000000
6108.497070 -10328.904297 0.000000
5090.414062 -8607.419922 0.000000
6216.324219 -10264.371094 0.000000
5180.270020 -8553.642578 0.000000
6323.469727 -10198.711914 0.000000
5269.558105 -8498.926758 0.000000
6429.921387 -10131.935547 0.000000
5358.268066 -8443.279297 0.000000
6535.668457 -10064.046875 0.000000
5446.390137 -8386.706055 0.000000
6640.698730 -9995.054688 0.000000
5533.915527 -8329.212891 0.000000
6745.000488 -9924.966797 0.000000
5620.833984 -8270.805664 0.000000
6848.562988 -9853.790039 0.000000
5707.135742 -8211.492188 0.000000
6951.374023 -9781.533203 0.000000
5792.811523 -8151.277832 0.000000
7053.422852 -9708.204102 0.000000
5877.852539 -8090.169922 0.000000
7154.698730 -9633.809570 0.000000
5962.248535 -8028.174805 0.000000
7255.189453 -9558.359375 0.000000
6045.991211 -7965.299316 0.000000
7354.884766 -9481.860352 0.000000
6129.070312 -7901.550293 0.000000
7453.773438 -9404.321289 0.000000
6211.478027 -7836.934570 0.000000
7551.844727 -9325.751953 0.000000
6293.204102 -7771.459473 0.000000
7649.087891 -9246.159180 0.000000
6374.239746 -7705.132324 0.000000
7745.492188 -9165.552734 0.000000
6454.576660 -7637.960449 0.000000
7841.047363 -9083.940430 0.000000
6534.206055 -7569.950684 0.000000
7935.742188 -9001.333008 0.000000
6613.118652 -7501.110840 0.000000
8029.567383 -8917.738281 0.000000
6691.306152 -7431.448242 0.000000
8122.511719 -8833.165039 0.000000
6768.759766 -7360.970703 0.000000
8214.565430 -8747.623047 0.000000
6845.471191 -7289.686035 0.000000
8305.717773 -8661.123047 0.000000
6921.431641 -7217.602051 0.000000
8395.959961 -8573.671875 0.000000
6996.633301 -7144.726562 0.000000
8485.281250 -8485.281250 0.000000
7071.067871 -7071.067871 0.000000
8573.671875 -8395.959961 0.000000
7144.726562 -6996.633301 0.000000
8661.123047 -8305.717773 0.000000
7217.602051 -6921.431641 0.000000
8747.623047 -8214.565430 0.000000
7289.686035 -6845.471191 0.000000
8833.165039 -8122.511719 0.000000
7360.970703 -6768.759766 0.000000
8917.738281 -8029.567383 0.000000
7431.448242 -6691.306152 0.000000
9001.333008 -7935.742188 0.000000
7501.110840 -6613.118652 0.000000
9083.940430 -7841.047363 0.000000
7569.950684 -6534.206055 0.000000
9165.552734 -7745.492188 0.000000
7637.960449 -6454.576660 0.000000
9246.159180 -7649.087891 0.000000
7705.132324 -6374.239746 0.000000
9325.751953 -7551.844727 0.000000
7771.459473 -6293.204102 0.000000
9404.321289 -7453.773438 0.000000
7836.934570 -6211.478027 0.000000
9481.860352 -7354.884766 0.000000
7901.550293 -6129.070312 0.000000
9558.359375 -7255.189453 0.000000
7965.299316 -6045.991211 0.000000
9633.809570 -7154.698730 0.000000
8028.174805 -5962.248535 0.000000
9708.204102 -7053.422852 0.000000
8090.169922 -5877.852539 0.000000
9781.533203 -6951.374023 0.000000
8151.277832 -5792.811523 0.000000
9853.790039 -6848.562988 0.000000
8211.492188 -5707.135742 0.000000
9924.966797 -6745.000488 0.000000
8270.805664 -5620.833984 0.000000
9995.054688 -6640.698730 0.000000
8329.212891 -5533.915527 0.000000
10064.046875 -6535.668457 0.000000
8386.706055 -5446.390137 0.000000
10131.935547 -6429.921387 0.000000
8443.279297 -5358.268066 0.000000
10198.711914 -6323.469727 0.000000
8498.926758 -5269.558105 0.000000
10264.371094 -6216.324219 0.000000
8553.642578 -5180.270020 0.000000
10328.904297 -6108.497070 0.000000
8607.419922 -5090.414062 0.000000
10392.304688 -6000.000000 0.000000
8660.253906 -5000.000000 0.000000
10454.565430 -5890.845215 0.000000
8712.137695 -4909.037598 0.000000
10515.679688 -5781.043945 0.000000
8763.066406 -4817.536621 0.000000
10575.641602 -5670.609375 0.000000
8813.034180 -4725.507812 0.000000
10634.443359 -5559.552246 0.000000
8862.036133 -4632.960449 0.000000
10692.078125 -5447.886230 0.000000
8910.065430 -4539.904785 0.000000
10748.541016 -5335.622070 0.000000
8957.117188 -4446.351562 0.000000
10803.825195 -5222.772949 0.000000
9003.187500 -4352.311035 0.000000
10857.924805 -5109.351562 0.000000
9048.270508 -4257.792969 0.000000
10910.833008 -4995.369629 0.000000
9092.361328 -4162.808105 0.000000
10962.545898 -4880.839844 0.000000
9135.454102 -4067.366455 0.000000
11013.055664 -4765.774902 0.000000
9177.545898 -3971.479004 0.000000
11062.357422 -4650.187012 0.000000
9218.631836 -3875.155762 0.000000
11110.447266 -4534.089355 0.000000
9258.706055 -3778.407959 0.000000
11157.317383 -4417.494629 0.000000
9297.764648 -3681.245605 0.000000
11202.964844 -4300.415527 0.000000
9335.804688 -3583.679443 0.000000
11247.383789 -4182.864746 0.000000
9372.820312 -3485.720459 0.000000
11290.569336 -4064.854980 0.000000
9408.807617 -3387.379150 0.000000
11332.516602 -3946.399658 0.000000
9443.763672 -3288.666504 0.000000
11373.220703 -3827.511719 0.000000
9477.684570 -3189.593018 0.000000
11412.677734 -3708.203857 0.000000
9510.565430 -3090.169922 0.000000
11450.883789 -3588.489502 0.000000
9542.403320 -2990.407959 0.000000
11487.833984 -3468.381592 0.000000
9573.195312 -2890.317871 0.000000
11523.524414 -3347.893311 0.000000
9602.936523 -2789.911133 0.000000
11557.951172 -3227.037842 0.000000
9631.625977 -2689.198242 0.000000
11591.110352 -3105.828613 0.000000
9659.257812 -2588.190430 0.000000
11622.998047 -2984.278564 0.000000
9685.832031 -2486.898926 0.000000
11653.611328 -2862.401611 0.000000
9711.342773 -2385.334473 0.000000
11682.947266 -2740.210449 0.000000
9735.789062 -2283.508789 0.000000
11711.000977 -2617.718994 0.000000
9759.167969 -2181.432373 0.000000
11737.771484 -2494.940186 0.000000
9781.475586 -2079.116943 0.000000
11763.253906 -2371.888184 0.000000
9802.711914 -1976.573364 0.000000
11787.447266 -2248.575684 0.000000
9822.872070 -1873.813110 0.000000
11810.347656 -2125.016846 0.000000
9841.956055 -1770.847412 0.000000
11831.952148 -2001.224976 0.000000
9859.959961 -1667.687500 0.000000
11852.259766 -1877.213623 0.000000
9876.883789 -1564.344604 0.000000
11871.267578 -1752.996338 0.000000
9892.723633 -1460.830322 0.000000
11888.973633 -1628.586914 0.000000
9907.478516 -1357.155762 0.000000
11905.375977 -1503.998779 0.000000
9921.147461 -1253.332275 0.000000
11920.473633 -1379.245850 0.000000
9933.727539 -1149.371460 0.000000
11934.262695 -1254.341553 0.000000
9945.218750 -1045.284668 0.000000
11946.743164 -1129.299805 0.000000
9955.620117 -941.083130 0.000000
11957.914062 -1004.134094 0.000000
9964.928711 -836.778442 0.000000
11967.773438 -878.858337 0.000000
9973.144531 -732.381958 0.000000
11976.320312 -753.486206 0.000000
9980.267578 -627.905212 0.000000
11983.554688 -628.031494 0.000000
9986.294922 -523.359558 0.000000
11989.473633 -502.507843 0.000000
9991.228516 -418.756531 0.000000
11994.079102 -376.929108 0.000000
9995.065430 -314.107605 0.000000
11997.368164 -251.309036 0.000000
9997.806641 -209.424194 0.000000
11999.341797 -125.661407 0.000000
9999.452148 -104.717842 0.000000
